<?xml version="1.0" encoding="utf-8"?>
<!-- Generator: Adobe Illustrator 16.0.0, SVG Export Plug-In . SVG Version: 6.00 Build 0)  -->
<!DOCTYPE svg PUBLIC "-//W3C//DTD SVG 1.1//EN" "http://www.w3.org/Graphics/SVG/1.1/DTD/svg11.dtd" [
	<!ENTITY ns_flows "http://ns.adobe.com/Flows/1.0/">
	<!ENTITY ns_extend "http://ns.adobe.com/Extensibility/1.0/">
	<!ENTITY ns_ai "http://ns.adobe.com/AdobeIllustrator/10.0/">
	<!ENTITY ns_graphs "http://ns.adobe.com/Graphs/1.0/">
	<!ENTITY st0 "fill:#111111;">
]>
<svg version="1.1" id="レイヤー_1" xmlns:x="&ns_extend;" xmlns:i="&ns_ai;" xmlns:graph="&ns_graphs;"
	 xmlns="http://www.w3.org/2000/svg" xmlns:xlink="http://www.w3.org/1999/xlink" xmlns:a="http://ns.adobe.com/AdobeSVGViewerExtensions/3.0/"
	 x="0px" y="0px" width="161.826px" height="218.312px" viewBox="0 0 161.826 218.312"
	 style="enable-background:new 0 0 161.826 218.312;" xml:space="preserve">
<g>
	<g>
		<polygon style="&st0;" points="86.675,176.314 84.828,176.314 83.216,181.805 76.578,181.805 76.578,176.314 74.705,176.314 
			74.705,181.805 69.775,181.805 69.775,183.559 74.705,183.559 74.705,188.572 76.578,188.572 76.578,183.559 82.599,183.631 
			78.901,196.347 80.75,196.32 84.543,183.559 90.629,183.559 90.629,181.805 85.016,181.805 		"/>
		<rect x="96.2" y="177.78" style="&st0;" width="15.237" height="1.715"/>
		<polygon style="&st0;" points="93.261,185.965 103.645,185.965 99.377,195.934 101.418,195.934 105.608,185.965 114.335,185.965 
			114.335,184.181 93.261,184.181 		"/>
		<rect x="119.898" y="177.78" style="&st0;" width="15.385" height="1.715"/>
		<polygon style="&st0;" points="117.906,184.774 133.245,184.774 125.159,196.412 127.673,196.412 136.706,183.063 117.906,182.99 
					"/>
		<polygon style="&st0;" points="160.025,176.588 141.422,186.788 141.422,188.801 150.498,183.789 150.498,196.435 
			152.328,196.435 152.298,182.875 160.025,178.692 		"/>
		<polygon style="&st0;" points="76.84,197.295 74.992,197.295 74.992,218.313 76.84,218.313 76.84,206.743 89.211,210.514 
			89.211,208.595 76.84,204.96 		"/>
		<polygon style="&st0;" points="107.693,197.98 105.702,197.98 103.717,203.701 93.261,203.701 93.261,205.486 103.073,205.486 
			98.241,217.602 100.469,217.602 105.061,205.486 114.335,205.486 114.335,203.701 105.655,203.701 		"/>
		<rect x="137.842" y="196.724" style="&st0;" width="1.471" height="5.446"/>
		<rect x="135.14" y="196.773" style="&st0;" width="1.494" height="5.441"/>
		<polygon style="&st0;" points="118.642,203.082 132.488,203.082 132.488,215.132 118.642,215.132 118.642,216.916 
			134.309,216.916 134.309,201.321 118.642,201.321 		"/>
		<polygon style="&st0;" points="147.821,203.565 146.73,198.258 144.786,198.258 145.972,203.861 140.873,204.523 140.873,206.466 
			146.443,205.623 149.051,218.108 150.874,218.108 148.268,205.301 158.818,203.631 156.117,209.758 158.129,209.758 
			161.826,201.275 		"/>
	</g>
	<g>
		<rect x="121.637" y="150.941" style="&st0;" width="5.041" height="12.148"/>
		<rect x="121.637" y="165.604" style="&st0;" width="5.041" height="4.865"/>
		<polygon style="&st0;" points="50.301,162.121 45.252,162.121 45.252,164.696 44.473,164.696 44.473,165.548 38.427,165.548 
			38.427,164.696 37.598,164.696 37.598,156.824 38.427,156.824 38.427,155.973 40.26,155.973 40.26,150.992 30.002,150.992 
			30.002,155.973 31.551,155.973 31.551,156.824 32.382,156.824 32.382,164.696 31.551,164.696 31.551,165.548 30.002,165.548 
			30.002,170.526 50.301,170.526 		"/>
		<polygon style="&st0;" points="56.896,150.889 56.896,152.385 56.012,152.385 56.012,153.299 54.401,153.299 54.401,155.81 
			53.402,155.81 53.402,158.272 51.908,158.272 51.908,163.193 53.402,163.193 53.402,165.604 54.401,165.604 54.401,168.114 
			56.012,168.114 56.012,168.975 56.896,168.975 56.896,170.469 64.552,170.469 64.552,168.975 65.445,168.975 65.445,168.114 
			67.106,168.114 67.106,170.469 72.154,170.469 72.154,160.68 68.218,160.68 62.001,160.68 62.001,163.145 67.106,163.145 
			67.106,164.696 66.107,164.696 66.107,165.548 60.284,165.548 60.284,164.696 59.393,164.696 59.393,156.771 60.284,156.771 
			60.284,155.862 66.052,155.862 66.052,156.771 66.995,156.771 66.995,158.328 72.154,158.328 72.154,150.941 66.995,150.941 
			66.995,153.299 65.553,153.299 65.553,152.385 64.552,152.385 64.552,150.889 		"/>
		<polygon style="&st0;" points="78.979,156.824 79.75,156.824 79.75,155.973 81.418,155.973 81.418,164.853 80.584,164.853 
			80.584,165.711 77.702,165.711 77.702,170.469 90.293,170.469 90.293,165.711 87.52,165.711 87.52,164.853 86.58,164.853 
			86.58,155.973 88.076,155.973 88.076,156.824 88.852,156.824 88.852,159.668 94.009,159.668 94.009,150.941 73.82,150.941 
			73.82,159.668 78.979,159.668 		"/>
		<polygon style="&st0;" points="103.271,165.604 100.665,165.604 100.665,155.704 101.881,155.704 101.881,158.272 
			102.437,158.272 102.437,160.627 103.33,160.627 103.33,163.145 104.213,163.145 104.213,165.604 104.991,165.604 
			104.991,167.907 105.771,167.907 105.771,170.469 107.657,170.469 107.657,167.957 108.264,167.957 108.264,163.145 
			109.264,163.145 109.264,160.68 110.097,160.68 110.097,158.272 110.928,158.272 110.928,156.453 111.706,156.453 111.706,155.81 
			113.42,155.81 113.42,165.604 109.264,165.604 109.264,170.526 119.971,170.526 119.971,165.604 118.47,165.604 118.47,155.81 
			119.971,155.81 119.971,150.834 110.816,150.834 110.816,152.385 109.983,152.385 109.983,153.24 106.434,153.24 106.434,152.385 
			105.712,152.385 105.712,150.834 95.675,150.834 95.675,155.704 98.173,155.704 98.173,165.604 95.675,165.604 95.675,170.469 
			103.271,170.469 		"/>
	</g>
	<g>
		<rect x="30.315" y="213.946" style="&st0;" width="33.173" height="3.765"/>
		<rect x="30.315" y="204.426" style="&st0;" width="33.173" height="3.766"/>
		<rect x="30.315" y="194.9" style="&st0;" width="33.173" height="3.769"/>
		<rect x="30.315" y="185.381" style="&st0;" width="33.173" height="3.762"/>
		<rect x="30.315" y="175.852" style="&st0;" width="33.173" height="3.758"/>
	</g>
	<polygon style="&st0;" points="63.488,145.523 63.488,144.389 63.488,140.908 30.315,140.908 30.315,144.389 30.315,145.523 
		30.315,146.537 63.488,146.537 	"/>
	<rect x="30" style="&st0;" width="32" height="135"/>
	<rect x="8.117" y="175.852" style="&st0;" width="16.868" height="41.859"/>
	<rect x="-0.099" y="175.852" style="&st0;" width="5.487" height="41.859"/>
	<rect x="133" y="151" style="&st0;" width="10" height="20"/>
</g>
</svg>
